{
  "accessors": [
    {
      "bufferView": 1,
      "componentType": 5126,
      "count": 48576,
      "max": [
        545.8218994140625,
        339.7550964355469,
        882.7063598632813
      ],
      "min": [
        -235.09446716308594,
        -16.815000534057617,
        -341.9006042480469
      ],
      "type": "VEC3"
    },
    {
      "bufferView": 1,
      "byteOffset": 582912,
      "componentType": 5126,
      "count": 48576,
      "max": [
        1.0,
        1.0,
        1.0
      ],
      "min": [
        -1.0,
        -1.0,
        -1.0
      ],
      "type": "VEC3"
    },
    {
      "bufferView": 2,
      "componentType": 5126,
      "count": 48576,
      "max": [
        1.0,
        1.0,
        1.0,
        1.0
      ],
      "min": [
        0.0,
        0.0,
        0.0,
        1.0
      ],
      "type": "VEC4"
    },
    {
      "bufferView": 0,
      "componentType": 5125,
      "count": 184572,
      "type": "SCALAR"
    }
  ],
  "asset": {
    "extras": {
      "author": "Braykoff (https://sketchfab.com/braykoff)",
      "license": "CC-BY-4.0 (http://creativecommons.org/licenses/by/4.0/)",
      "source": "https://sketchfab.com/3d-models/city-street-1e59cb5cded649e9a5f7eebfe422db06",
      "title": "City Street"
    },
    "generator": "Sketchfab-12.66.0",
    "version": "2.0"
  },
  "bufferViews": [
    {
      "buffer": 0,
      "byteLength": 738288,
      "name": "floatBufferViews",
      "target": 34963
    },
    {
      "buffer": 0,
      "byteLength": 1165824,
      "byteOffset": 738288,
      "byteStride": 12,
      "name": "floatBufferViews",
      "target": 34962
    },
    {
      "buffer": 0,
      "byteLength": 777216,
      "byteOffset": 1904112,
      "byteStride": 16,
      "name": "floatBufferViews",
      "target": 34962
    }
  ],
  "buffers": [
    {
      "byteLength": 2681328,
      "uri": "scene.bin"
    }
  ],
  "materials": [
    {
      "doubleSided": true,
      "name": "Scene_-_Root",
      "pbrMetallicRoughness": {
        "metallicFactor": 0.0,
        "roughnessFactor": 0.6
      }
    }
  ],
  "meshes": [
    {
      "name": "Object_0",
      "primitives": [
        {
          "attributes": {
            "COLOR_0": 2,
            "NORMAL": 1,
            "POSITION": 0
          },
          "indices": 3,
          "material": 0,
          "mode": 4
        }
      ]
    }
  ],
  "nodes": [
    {
      "children": [
        1
      ],
      "matrix": [
        0.049686942249536514,
        0.0,
        0.0,
        0.0,
        0.0,
        0.049686942249536514,
        1.1032717461731182e-17,
        0.0,
        0.0,
        -1.1032717461731182e-17,
        0.049686942249536514,
        0.0,
        0.0,
        1.00888824462894,
        -152.0089111328125,
        1.0
      ],
      "name": "Sketchfab_model"
    },
    {
      "children": [
        2
      ],
      "name": "City (1).stl.cleaner.materialmerger.gles"
    },
    {
      "mesh": 0,
      "name": "Object_2"
    }
  ],
  "scene": 0,
  "scenes": [
    {
      "name": "Sketchfab_Scene",
      "nodes": [
        0
      ]
    }
  ]
}
